<?xml version="1.0" encoding="iso-8859-1"?>
<!-- Generator: Adobe Illustrator 16.0.0, SVG Export Plug-In . SVG Version: 6.00 Build 0)  -->
<!DOCTYPE svg PUBLIC "-//W3C//DTD SVG 1.1//EN" "http://www.w3.org/Graphics/SVG/1.1/DTD/svg11.dtd">
<svg version="1.1" id="Capa_1" xmlns="http://www.w3.org/2000/svg" xmlns:xlink="http://www.w3.org/1999/xlink" x="0px" y="0px"
	 width="525.143px" height="525.143px" viewBox="0 0 525.143 525.143" style="enable-background:new 0 0 525.143 525.143;"
	 xml:space="preserve">
<g>
	<g>
		<path d="M406.551,171.345h-8.646V25.607c0-2.455-1.988-4.442-4.443-4.442h-6.495C384.856,9.162,374.379,0,361.78,0h-29.319
			c-12.603,0-23.084,9.159-25.195,21.165h-6.116c-2.454,0-4.443,1.988-4.443,4.442v145.739h-68.271V25.607
			c0-2.455-1.99-4.442-4.443-4.442h-6.25C215.627,9.162,205.154,0,192.553,0h-29.32c-12.601,0-23.081,9.159-25.192,21.165h-6.361
			c-2.454,0-4.444,1.988-4.444,4.442v145.739h-8.645c-2.454,0-4.444,1.988-4.444,4.442v344.91c0,2.455,1.99,4.445,4.444,4.445
			h287.962c2.454,0,4.441-1.988,4.441-4.445v-344.91C410.992,173.335,409.004,171.345,406.551,171.345z M332.46,8.886h29.319
			c7.68,0,14.171,5.207,16.119,12.278h-61.563C318.289,14.093,324.777,8.886,332.46,8.886z M163.232,8.886h29.32
			c7.683,0,14.171,5.207,16.122,12.278h-61.562C149.062,14.093,155.551,8.886,163.232,8.886z M402.106,516.258H123.031V180.231
			h8.646c2.453,0,4.443-1.99,4.443-4.443V30.05h5.95h71.646h0.027h5.803v145.738c0,2.454,1.99,4.443,4.444,4.443h77.157
			c2.454,0,4.441-1.99,4.441-4.443V30.05h5.705h71.646h0.029h6.05v145.738c0,2.454,1.987,4.443,4.441,4.443h8.646v336.025h-0.001
			V516.258z"/>
		<path d="M168.85,54.232h-17.853c-2.453,0-4.443,1.989-4.443,4.444v100.58c0,2.453,1.99,4.443,4.443,4.443h17.853
			c2.454,0,4.444-1.99,4.444-4.443V58.675C173.292,56.221,171.303,54.232,168.85,54.232z M164.406,154.812h-8.967V63.118h8.967
			V154.812z"/>
		<path d="M204.791,54.232h-17.853c-2.453,0-4.443,1.989-4.443,4.444v100.58c0,2.453,1.99,4.443,4.443,4.443h17.853
			c2.454,0,4.444-1.99,4.444-4.443V58.675C209.233,56.221,207.243,54.232,204.791,54.232z M200.347,154.812h-8.967V63.118h8.967
			V154.812z"/>
		<path d="M342.517,159.254V58.674c0-2.455-1.989-4.444-4.443-4.444h-17.853c-2.454,0-4.442,1.989-4.442,4.444v100.58
			c0,2.454,1.988,4.443,4.442,4.443h17.853C340.527,163.697,342.517,161.708,342.517,159.254z M333.631,154.812h-8.967V63.118h8.967
			V154.812z"/>
		<path d="M378.458,159.254V58.674c0-2.455-1.985-4.444-4.442-4.444h-17.853c-2.455,0-4.442,1.989-4.442,4.444v100.58
			c0,2.454,1.987,4.443,4.442,4.443h17.853C376.47,163.697,378.458,161.708,378.458,159.254z M369.572,154.812h-8.967V63.118h8.967
			V154.812z"/>
		<path d="M236.938,252.566c2.454,0,4.443-1.988,4.443-4.442v-47.535c0-2.454-1.989-4.442-4.443-4.442h-13.955
			c-2.454,0-4.441,1.988-4.441,4.442v47.535c0,2.454,1.987,4.442,4.441,4.442H236.938z M227.427,205.032h5.07v38.65h-5.07V205.032z"
			/>
		<path d="M248.615,252.566h13.955c2.453,0,4.442-1.988,4.442-4.442v-47.535c0-2.454-1.989-4.442-4.442-4.442h-13.955
			c-2.454,0-4.443,1.988-4.443,4.442v47.535C244.172,250.576,246.162,252.566,248.615,252.566z M253.056,205.032h5.07v38.65h-5.07
			V205.032z"/>
		<path d="M274.245,252.566H288.2c2.454,0,4.443-1.988,4.443-4.442v-47.535c0-2.454-1.989-4.442-4.443-4.442h-13.955
			c-2.454,0-4.442,1.988-4.442,4.442v47.535C269.803,250.576,271.791,252.566,274.245,252.566z M278.688,205.032h5.07v38.65h-5.07
			V205.032z"/>
		<path d="M313.83,196.146h-13.956c-2.45,0-4.441,1.988-4.441,4.442v47.535c0,2.454,1.987,4.441,4.441,4.441h13.956
			c2.454,0,4.442-1.988,4.442-4.441v-47.535C318.272,198.135,316.284,196.146,313.83,196.146z M309.388,243.68h-5.066v-38.65h5.066
			V243.68z"/>
		<path d="M262.569,288.211c-23.45,0-42.527,19.08-42.527,42.529s19.077,42.525,42.527,42.525c23.449,0,42.525-19.076,42.525-42.525
			C305.096,307.291,286.019,288.211,262.569,288.211z M262.569,364.381c-18.549,0-33.642-15.092-33.642-33.641
			c0-18.553,15.091-33.645,33.642-33.645c18.549,0,33.64,15.092,33.64,33.645C296.209,349.289,281.118,364.381,262.569,364.381z"/>
		<path d="M262.569,308.826c-12.084,0-21.913,9.83-21.913,21.914c0,12.082,9.83,21.912,21.913,21.912
			c12.082,0,21.912-9.83,21.912-21.912C284.481,318.656,274.651,308.826,262.569,308.826z M262.569,343.767
			c-7.184,0-13.027-5.845-13.027-13.026c0-7.186,5.843-13.027,13.027-13.027c7.185,0,13.026,5.843,13.026,13.027
			C275.597,337.923,269.754,343.767,262.569,343.767z"/>
		<path d="M164.177,309.979h-19.959c-2.454,0-4.443,1.985-4.443,4.442v39.104c0,2.453,1.989,4.444,4.443,4.444h19.959
			c2.454,0,4.443-1.987,4.443-4.444v-39.104C168.62,311.965,166.631,309.979,164.177,309.979z M159.734,349.083H148.66v-30.222
			h11.074V349.083z"/>
		<path d="M198.118,309.979h-19.96c-2.453,0-4.443,1.985-4.443,4.442v39.104c0,2.453,1.99,4.444,4.443,4.444h19.959
			c2.454,0,4.443-1.987,4.443-4.444v-39.104C202.561,311.965,200.572,309.979,198.118,309.979z M193.676,349.083h-11.075v-30.222
			h11.075V349.083z"/>
		<path d="M346.98,309.979h-19.959c-2.454,0-4.443,1.985-4.443,4.442v39.104c0,2.453,1.986,4.444,4.443,4.444h19.959
			c2.455,0,4.443-1.987,4.443-4.444v-39.104C351.425,311.965,349.436,309.979,346.98,309.979z M342.535,349.083h-11.07v-30.222
			h11.07V349.083z"/>
		<path d="M380.92,309.979h-19.959c-2.451,0-4.442,1.985-4.442,4.442v39.104c0,2.453,1.989,4.444,4.442,4.444h19.959
			c2.454,0,4.443-1.987,4.443-4.444v-39.104C385.363,311.965,383.374,309.979,380.92,309.979z M376.478,349.083h-11.074v-30.222
			h11.074V349.083z"/>
		<path d="M164.177,442.508h-19.959c-2.454,0-4.443,1.99-4.443,4.445v39.105c0,2.453,1.989,4.441,4.443,4.441h19.959
			c2.454,0,4.443-1.984,4.443-4.441v-39.105C168.62,444.5,166.631,442.508,164.177,442.508z M159.734,481.615H148.66v-30.221h11.074
			V481.615z"/>
		<path d="M198.118,442.508h-19.96c-2.453,0-4.443,1.99-4.443,4.445v39.105c0,2.453,1.99,4.441,4.443,4.441h19.959
			c2.454,0,4.443-1.984,4.443-4.441v-39.105C202.561,444.5,200.572,442.508,198.118,442.508z M193.676,481.615h-11.075v-30.221
			h11.075V481.615z"/>
		<path d="M346.98,442.508h-19.959c-2.454,0-4.443,1.99-4.443,4.445v39.105c0,2.453,1.986,4.441,4.443,4.441h19.959
			c2.455,0,4.443-1.984,4.443-4.441v-39.105C351.425,444.5,349.436,442.508,346.98,442.508z M342.535,481.615h-11.07v-30.221h11.07
			V481.615z"/>
		<path d="M380.92,442.508h-19.959c-2.451,0-4.442,1.99-4.442,4.445v39.105c0,2.453,1.989,4.441,4.442,4.441h19.959
			c2.454,0,4.443-1.984,4.443-4.441v-39.105C385.363,444.5,383.374,442.508,380.92,442.508z M376.478,481.615h-11.074v-30.221
			h11.074V481.615z"/>
		<path d="M255.579,442.508h-19.961c-2.453,0-4.443,1.99-4.443,4.445v39.105c0,2.453,1.99,4.441,4.443,4.441h19.959
			c2.455,0,4.443-1.984,4.443-4.441v-39.105C260.021,444.5,258.032,442.508,255.579,442.508z M251.136,481.615h-11.075v-30.221
			h11.075V481.615z"/>
		<path d="M289.52,442.508h-19.96c-2.451,0-4.442,1.99-4.442,4.445v39.105c0,2.453,1.988,4.441,4.442,4.441h19.96
			c2.454,0,4.441-1.984,4.441-4.441v-39.105C293.962,444.5,291.975,442.508,289.52,442.508z M285.076,481.615h-11.073v-30.221
			h11.073V481.615z"/>
	</g>
</g>
<g>
</g>
<g>
</g>
<g>
</g>
<g>
</g>
<g>
</g>
<g>
</g>
<g>
</g>
<g>
</g>
<g>
</g>
<g>
</g>
<g>
</g>
<g>
</g>
<g>
</g>
<g>
</g>
<g>
</g>
</svg>
